<?xml version="1.0" encoding="UTF-8" standalone="no"?>
<!-- Created with Inkscape (http://www.inkscape.org/) -->

<svg
   version="1.1"
   id="svg1"
   width="1536"
   height="1024"
   viewBox="0 0 1536 1024"
   sodipodi:docname="Ukrain.svg"
   inkscape:version="1.4.2 (f4327f4, 2025-05-13)"
   xmlns:inkscape="http://www.inkscape.org/namespaces/inkscape"
   xmlns:sodipodi="http://sodipodi.sourceforge.net/DTD/sodipodi-0.dtd"
   xmlns:xlink="http://www.w3.org/1999/xlink"
   xmlns="http://www.w3.org/2000/svg"
   xmlns:svg="http://www.w3.org/2000/svg">
  <defs
     id="defs1">
    <linearGradient
       id="linearGradient56"
       inkscape:collect="always">
      <stop
         style="stop-color:#aa4400;stop-opacity:1;"
         offset="0"
         id="stop56" />
      <stop
         style="stop-color:#aa4400;stop-opacity:0;"
         offset="1"
         id="stop57" />
    </linearGradient>
    <linearGradient
       inkscape:collect="always"
       xlink:href="#linearGradient56"
       id="linearGradient57"
       x1="769.88031"
       y1="-70.166306"
       x2="769.88031"
       y2="884.87512"
       gradientUnits="userSpaceOnUse" />
  </defs>
  <sodipodi:namedview
     id="namedview1"
     pagecolor="#ffffff"
     bordercolor="#000000"
     borderopacity="0.25"
     inkscape:showpageshadow="2"
     inkscape:pageopacity="0.0"
     inkscape:pagecheckerboard="0"
     inkscape:deskcolor="#d1d1d1"
     inkscape:zoom="0.36279298"
     inkscape:cx="719.41855"
     inkscape:cy="668.42529"
     inkscape:window-width="1680"
     inkscape:window-height="987"
     inkscape:window-x="-8"
     inkscape:window-y="32"
     inkscape:window-maximized="1"
     inkscape:current-layer="g1" />
  <g
     inkscape:groupmode="layer"
     inkscape:label="Image"
     id="g1"
     style="display:inline">
    <rect
       style="display:inline;fill:url(#linearGradient57);fill-opacity:1"
       id="rect52"
       width="1547.5569"
       height="1033.004"
       x="-7.7962565"
       y="-1.9490641" />
    <ellipse
       style="display:inline;fill:#febe22;fill-opacity:1;stroke-width:1.0889"
       id="sun"
       cx="696.67834"
       cy="374.86948"
       rx="150.91277"
       ry="152.97981" />
    <path
       style="display:inline;fill:#807f23;fill-opacity:1"
       d="m 669.8035,601.58277 c 0,0 50.30417,-28.25303 142.64334,-41.34589 92.33916,-13.09287 144.02153,-4.82369 144.02153,-4.82369 l 94.40643,4.13459 c 0,0 74.4226,-24.80754 112.323,-28.94213 37.9005,-4.13459 56.5061,-5.51278 56.5061,-5.51278 0,0 142.2047,-3.23093 187.0332,1.15446 44.8285,4.38539 120.842,20.95244 131.5618,26.31237 10.7199,5.35992 -1.4618,157.38693 -1.4618,157.38693 L 637.34399,672.42714 Z"
       id="path2" />
    <path
       style="display:inline;fill:#9f8e22;fill-opacity:1"
       d="m 326.06171,551.3157 c 0,0 16.53835,-13.09287 71.66621,-13.09287 55.12786,0 101.29745,4.82369 113.70122,8.95828 12.40376,4.13459 67.53162,15.84926 67.53162,15.84926 0,0 17.91656,-2.75639 26.18574,-1.3782 8.26918,1.3782 10.33647,-4.13459 111.63391,16.53836 101.29745,20.67295 220.51144,27.56393 220.51144,27.56393 l -13.78196,40.6568 -588.48991,0.6891 z"
       id="path1" />
    <path
       style="display:inline;fill:#6e761e;fill-opacity:1"
       d="m 373.73306,584.23199 c 0,0 2.92359,-25.8251 17.05431,-26.79963 14.13071,-0.97454 21.43971,6.33446 21.43971,6.33446 0,0 5.35992,-7.79626 18.02884,-5.8472 12.66892,1.94907 22.9015,15.59252 22.9015,15.59252 0,0 4.3854,-5.8472 19.49064,-2.9236 15.10525,2.9236 18.51611,19.97791 18.51611,19.97791 0,0 -0.48726,-3.41086 7.79626,-2.9236 8.28352,0.48727 11.20712,4.3854 11.20712,4.3854 0,0 2.9236,-10.71986 15.10525,-10.23259 12.18165,0.48727 23.38877,12.18165 24.85057,17.54158 1.46179,5.35992 7.30899,-7.79626 18.02884,-7.30899 10.71985,0.48726 15.59251,2.92359 21.43971,13.15618 5.84719,10.23259 38.49401,14.13071 48.7266,11.20712 10.23259,-2.9236 15.59251,-8.28352 29.72323,-3.89813 14.13071,4.38539 17.05431,14.61798 17.05431,14.61798 0,0 20.95244,0 32.15956,7.30899 11.20712,7.30899 12.18165,-7.79625 28.26143,-6.82172 16.07978,0.97453 17.54158,-2.43633 29.23596,-13.64345 11.69439,-11.20712 36.54496,-3.89813 37.03222,3.41086 0.48727,7.30899 33.04923,7.30148 33.04923,7.30148 0,0 9.30282,-21.01749 26.53028,-21.36204 17.22745,-0.34455 15.50471,1.3782 15.50471,1.3782 0,0 -1.72275,-14.47107 21.36204,-18.60566 23.0848,-4.13459 31.35398,8.95828 31.35398,8.95828 0,0 5.85733,-16.19381 19.29475,-12.74832 13.43741,3.44549 15.50471,11.71467 15.50471,11.71467 l 1.12169,49.18849 -277.74164,58.47193 z"
       id="path4" />
    <path
       style="display:inline;fill:#938822;fill-opacity:1"
       d="m -0.68909825,518.20188 c 0,0 6.89098255,2.0673 11.71467025,4.82369 4.823688,2.7564 33.765814,10.33648 33.765814,10.33648 l 22.051144,-3.4455 c 0,0 92.33917,8.26918 115.07941,11.71468 22.74024,3.44549 61.32974,11.02557 67.53163,11.02557 6.20188,0 88.20457,17.22745 88.20457,17.22745 0,0 117.14671,17.22746 167.45088,31.00942 50.30417,13.78197 132.30686,30.32033 150.91251,39.2786 18.60566,8.95828 27.12547,9.84064 41.25618,18.61142 14.13072,8.77079 -2.66667,77.17324 -2.66667,77.17324 0,0 -293.55586,-11.02557 -312.85061,-13.78196 -19.29475,-2.7564 -385.8950195,-71.66622 -385.8950195,-71.66622 z"
       id="path3" />
    <rect
       style="display:inline;fill:#556317;fill-opacity:1"
       id="rect41"
       width="175.03094"
       height="43.413189"
       x="683.58545"
       y="685.65277" />
    <path
       style="display:inline;fill:#5e6c1b;fill-opacity:1"
       d="m 565.74965,733.54507 c -0.6891,-2.75639 -16.53836,-33.42127 -16.53836,-33.42127 0,0 -1.03365,-11.02557 20.67295,-14.47106 21.70659,-3.44549 32.04307,10.68102 32.04307,10.68102 0,0 -2.7564,-14.47106 7.92463,-16.53835 10.68102,-2.0673 13.09286,1.72274 13.09286,1.72274 0,0 -3.79004,-12.40377 8.26918,-15.16016 12.05922,-2.75639 16.19381,-3.79004 26.87483,2.41185 10.68103,6.20188 -21.70659,43.06863 12.40377,26.87483 34.11036,-16.19381 -4.82369,-20.67295 -4.82369,-20.67295 0,0 -7.58008,-12.74832 -2.06729,-14.81561 5.51278,-2.0673 7.92463,-5.51279 16.19381,-3.44549 8.26918,2.06729 9.30282,3.10094 15.50471,-0.6891 6.20188,-3.79004 25.15208,-12.05922 25.15208,-12.05922 0,0 50.64872,0.34455 50.30417,2.41184 -0.34455,2.0673 -107.84387,65.11979 -107.84387,65.11979 z"
       id="path8" />
    <path
       style="display:inline;fill:#917e19;fill-opacity:1"
       d="m 572.53759,737.72077 c 0,0 71.14084,-84.29702 261.17459,-113.53298 190.03372,-29.23596 193.44462,-32.64683 308.43942,-29.23596 114.9948,3.41086 -569.61401,142.76894 -569.61401,142.76894 z"
       id="path7" />
    <path
       style="display:inline;fill:#57681a;fill-opacity:1"
       d="m 983.79012,584.23197 c 0,0 7.30899,-14.13071 9.74532,-14.13071 2.43633,0 6.82176,-0.97453 9.74536,0.48727 2.9236,1.46179 16.567,2.92359 20.9524,-8.28353 4.3854,-11.20712 3.4109,-16.07978 15.1052,-21.92697 11.6944,-5.84719 13.1562,4.3854 15.5926,6.33446 2.4363,1.94906 3.4108,-7.30899 19.9779,-9.25806 16.567,-1.94906 20.4651,14.13072 20.4651,14.13072 0,0 12.669,-4.87266 15.5926,7.30899 2.9236,12.18165 19.0033,16.07978 33.134,12.18165 14.1308,-3.89813 10.2326,-9.25805 24.8506,-4.87266 14.618,4.3854 15.1053,-7.79626 15.1053,-7.79626 0,0 18.0288,-6.82172 32.6468,0 14.618,6.82173 37.0322,-1.94906 37.0322,-1.94906 l 0.079,65.1088 c 0,0 -247.7308,21.01749 -250.8317,22.05114 -3.10096,1.03365 -27.2194,-22.05114 -27.2194,-22.05114 z"
       id="path11" />
    <path
       style="display:inline;fill:#6c6f1a;fill-opacity:1"
       d="m 1537.8116,588.61737 c 0,0 -50.6757,-18.02884 -88.1952,-15.10525 -37.5194,2.9236 -177.8521,14.61798 -228.5277,43.85394 -50.6757,29.23597 3.4108,89.65695 5.8472,91.11875 2.4363,1.4618 348.8825,58.95919 310.8757,-119.86744 z"
       id="path12" />
    <path
       style="display:inline;fill:#576618;fill-opacity:1"
       d="m 1306.3602,641.2421 c 0,0 55.0611,-20.95244 98.915,-8.28352 43.854,12.66891 49.7012,74.06443 45.803,74.06443 -3.8981,0 -160.7977,-8.28352 -144.718,-65.78091 z"
       id="path13" />
    <path
       style="display:inline;fill:#304a13;fill-opacity:1"
       d="m 1094.8868,598.84996 c 0,0 14.618,-36.05769 44.3412,-9.74533 29.7232,26.31237 43.8539,15.59252 45.3157,39.95582 1.4618,24.3633 18.5161,0 18.5161,0 0,0 9.7454,-14.61798 34.5959,-10.23259 24.8506,4.3854 26.3124,19.49064 26.3124,19.49064 0,0 9.7453,-13.64345 27.7742,-9.74532 18.0288,3.89813 24.3633,15.10525 25.3378,27.77417 0.9745,12.66891 19.0034,16.56704 19.0034,16.56704 0,0 11.2071,-9.74532 15.5925,-1.94906 4.3854,7.79625 30.2105,1.4618 34.1086,-6.33446 3.8981,-7.79626 14.1307,-2.9236 14.1307,-2.9236 0,0 -7.309,-32.15955 11.2071,-38.49401 18.5161,-6.33446 25.8251,-2.9236 33.1341,2.92359 7.309,5.8472 11.6944,-9.25805 11.6944,-9.25805 0,0 20.4652,-3.89813 20.9524,23.38877 0.4873,27.2869 29.7233,4.87266 29.7233,4.87266 0,0 37.5195,44.82847 -18.0289,49.70113 -55.5483,4.87266 -333.2899,26.79964 -335.7263,26.31237 -2.4363,-0.48727 -57.9846,-122.30377 -57.9846,-122.30377 z"
       id="path14" />
    <path
       style="display:inline;fill:#5d6310;fill-opacity:1"
       d="m 1155.3078,710.92114 c 0,0 -131.0746,41.41762 -141.7945,61.39552 -10.7198,19.97791 61.8828,18.02885 61.8828,18.02885 0,0 98.915,-59.44646 79.9117,-79.42437 z"
       id="path50" />
    <path
       style="display:inline;fill:#6d6c13;fill-opacity:1"
       d="m 963.35933,822.78329 c 0,0 102.67567,-71.66622 155.04707,-92.33916 52.3715,-20.67295 94.4065,-30.32032 115.7685,-33.42127 21.3621,-3.10094 131.6178,-17.91655 187.7793,-19.98385 56.1615,-2.06729 114.7349,-0.68909 114.7349,-0.68909 l -0.8266,42.12385 -364.5568,210.47701 z"
       id="path6" />
    <path
       style="display:inline;fill:#415516;fill-opacity:1"
       d="m 1535.8625,706.77938 c 0,0 8.5272,27.04327 0,34.10862 -8.5271,7.06536 -27.2869,-9.74532 -27.2869,-9.74532 z"
       id="path51" />
    <path
       style="display:inline;fill:#415516;fill-opacity:1"
       d="m 1120.2246,870.7444 c 0.9745,-2.92359 118.8929,-101.35133 176.8776,-126.2019 57.9846,-24.85057 104.7622,-38.98128 162.7468,-40.93035 57.9847,-1.94906 76.2572,3.04542 76.2572,3.04542 l -108.4167,278.59435 z"
       id="path9" />
    <rect
       style="display:inline;fill:#223d12;fill-opacity:1"
       id="rect51"
       width="37.211304"
       height="35.833107"
       x="1507.0579"
       y="996.09149" />
    <path
       style="display:inline;fill:#223d12;fill-opacity:1"
       d="m 1309.7711,922.88187 c 0,0 23.3888,-35.57042 28.7487,-34.59589 5.3599,0.97453 16.0798,9.25805 17.0543,13.64345 0.9745,4.38539 -5.8472,-24.11967 -5.8472,-24.11967 l 16.0798,2.9236 c 0,0 -17.4198,-22.29242 -11.3289,-33.62136 6.0908,-11.32893 13.5216,8.64897 13.5216,8.64897 0,0 -1.2592,-22.03824 3.0477,-24.19168 4.3068,-2.15343 9.8196,14.21266 9.8196,14.21266 0,0 1.2634,-40.20938 9.9124,-47.0311 8.649,-6.82173 10.3544,16.44523 10.3544,16.44523 0,0 6.8217,-28.13962 16.2016,-35.93587 9.3798,-7.79626 5.3599,-7.06536 9.6844,1.58361 4.3245,8.64897 0.1029,-0.95689 7.5107,-10.60427 7.4079,-9.64737 16.883,-19.6393 21.1898,-22.22342 4.3069,-2.58412 5.9563,1.27721 8.5144,9.80437 2.5582,8.52716 9.989,-13.52163 19.7343,-21.56152 9.7453,-8.03989 16.5671,-10.71986 28.9923,-9.98896 12.4253,0.7309 10.4763,11.45076 10.4763,11.45076 0,0 6.8217,-5.60356 12.4252,-5.8472 5.6036,-0.24363 0,281.78992 0,281.78992 z"
       id="path10" />
    <path
       style="display:inline;fill:#273e15;fill-opacity:1"
       d="m 1308.3093,572.05032 c 0,0 -7.309,23.38877 -34.1086,22.41424 -26.7997,-0.97453 -29.7233,-28.7487 -29.7233,-28.7487 0,0 -12.1816,8.77079 -24.8505,-4.38539 -12.6689,-13.15618 -7.309,-31.67229 -7.309,-31.67229 0,0 67.73,-122.79104 85.2715,-130.10003 17.5416,-7.30899 13.1562,-10.23259 24.8506,-4.87266 11.6944,5.35992 43.854,-44.82848 43.854,-44.82848 l 89.1696,38.00675 22.4143,72.11538 c 0,0 15.5925,6.33445 10.7198,36.05768 -4.8726,29.72323 -17.0543,18.51611 -17.0543,18.51611 0,0 17.5416,20.95244 -5.3599,47.26481 -22.9015,26.31236 -49.7011,19.9779 -49.7011,19.9779 0,0 -15.1053,-3.89812 -12.1817,-13.64345 2.9236,-9.74532 -23.3888,-39.95581 -23.3888,-39.95581 l -52.6247,22.9015 c 0,0 1.9491,25.33784 -19.9779,20.95244 z"
       id="path15" />
    <path
       style="display:inline;fill:#354b12;fill-opacity:1"
       d="m 1316.1776,396.74831 -33.5935,14.47106 21.7066,-28.08075 12.9206,8.0969 z"
       id="path23" />
    <path
       style="display:inline;fill:#435514;fill-opacity:1"
       d="m 1388.5329,556.44682 c 0,0 14.4711,22.3957 35.8331,11.37012 21.3621,-11.02557 5.8574,-34.11036 5.8574,-34.11036 0,0 -12.7483,-35.14401 -23.0848,-36.17766 -10.3365,-1.03364 -15.5047,-9.64737 -29.2867,3.10095 -13.7819,12.74831 -24.463,-11.02558 -24.463,-11.02558 0,0 -23.4293,4.47914 -27.9084,14.81562 -4.4792,10.33647 -15.1602,12.74831 -15.1602,16.8829 0,4.13459 -0.6891,32.73217 -0.6891,32.73217 l 15.8493,19.29475 c 0,0 12.7483,2.75639 24.4629,-16.19381 11.7147,-18.9502 38.5895,-0.6891 38.5895,-0.6891 z"
       id="path16" />
    <path
       style="display:inline;fill:#2d4313;fill-opacity:1"
       d="m 1477.7712,459.62852 c 0,0 18.6056,-5.16824 22.7402,-29.28667 4.1346,-24.11844 -14.1265,-34.79946 -14.1265,-34.79946 0,0 9.9919,-21.36205 -3.4455,-37.90041 -13.4374,-16.53835 -27.5639,-16.19381 -35.4886,-8.61372 -7.9246,7.58008 -7.2355,-5.51279 -7.2355,-5.51279 0,0 3.79,-14.47106 -0.6891,-22.05114 -4.4791,-7.58008 -2.7564,-9.64738 -14.1265,-14.12652 -11.3701,-4.47914 -31.0094,-23.42934 -31.0094,-23.42934 l -29.9758,11.71467 11.3701,65.80888 c 0,0 0,2.41185 6.891,6.54644 6.891,4.13459 -7.9246,13.78196 -7.9246,13.78196 0,0 -2.4119,8.95828 2.0673,13.43742 4.4791,4.47914 6.891,6.89098 10.3364,7.92463 3.4455,1.03364 -8.2691,4.47913 -9.9919,9.99192 -1.7227,5.51279 3.101,25.84118 16.8829,25.84118 13.782,0 25.1521,-3.79004 26.5303,-8.26917 1.3782,-4.47914 9.9919,11.71467 15.8493,8.61372 5.8573,-3.10094 9.6473,-9.64737 11.3701,-5.85733 1.7227,3.79004 -1.7228,12.74832 6.891,16.19381 8.6137,3.44549 23.0848,9.99192 23.0848,9.99192 z"
       id="path17" />
    <path
       style="display:inline;fill:#455813;fill-opacity:1"
       d="m 1247.9569,378.65948 c 0,0 -6.891,-9.99193 -0.3445,-18.9502 6.5464,-8.95828 8.2691,-5.85734 8.2691,-5.85734 0,0 -13.0928,-3.44549 -11.3701,-29.63122 1.7228,-26.18573 24.1184,-29.63123 24.1184,-29.63123 0,0 0.3446,-18.9502 16.1939,-28.59757 15.8492,-9.64738 18.9502,1.03365 18.9502,1.03365 0,0 6.8909,-21.7066 24.8075,-22.3957 17.9165,-0.6891 21.0175,12.40377 21.0175,12.40377 0,0 10.3365,-11.37012 24.463,-2.75639 14.1265,8.61373 13.0928,17.22745 13.0928,17.22745 0,0 10.6811,-9.30282 27.564,6.54644 16.8829,15.84926 9.9919,29.97577 9.9919,29.97577 l -46.8587,38.24495 -60.9852,46.85868 c 0,0 -7.9246,-3.10094 -13.4374,1.03365 -5.5128,4.13459 -12.4038,9.64737 -12.4038,9.64737 l -33.7658,-1.37819 z"
       id="path18" />
    <path
       style="display:inline;fill:#304614;fill-opacity:1"
       d="m 1339.9515,397.26513 c 0,0 -16.8829,-20.67295 -42.7241,-19.29475 -25.8412,1.3782 -0.3445,-58.2288 8.6138,-48.92597 8.9582,9.30282 11.0255,3.79004 11.0255,3.79004 0,0 4.1346,-18.60566 14.1265,-21.36205 9.992,-2.75639 16.8829,-0.6891 22.7403,4.82369 5.8573,5.51278 6.891,8.26918 6.891,8.26918 0,0 10.681,-13.78197 23.4293,-11.71467 12.7483,2.06729 20.6729,6.20188 22.0511,15.50471 1.3782,9.30282 -0.3445,24.46299 -9.3028,28.25303 -8.9583,3.79004 -16.8829,6.54643 -24.463,5.51278 -7.58,-1.03365 -2.0673,11.02557 -2.0673,11.02557 0,0 -6.8909,11.02557 -15.8492,9.30283 -8.9583,-1.72275 -14.4711,14.81561 -14.4711,14.81561 z"
       id="path19" />
    <path
       style="display:inline;fill:#222f0e;fill-opacity:1"
       d="m 1306.1857,376.24764 c 0,0 43.0686,67.87617 44.1023,88.20457 1.0336,20.3284 5.5297,59.35878 6.017,63.01327 0.4873,3.6545 1.4618,6.09083 1.4618,6.09083 0,0 -31.6723,-39.46855 -36.3013,-59.93373 -4.629,-20.46517 -20.2216,-28.01779 -20.2216,-28.01779 l 19.2471,44.09757 22.4142,47.75208 c 0,0 8.2835,21.68333 9.0144,42.14851 0.7309,20.46517 0.2634,21.11843 0.2634,21.11843 0,0 -58.7353,-69.35777 -73.8406,-109.55722 -15.1052,-40.19945 -9.5016,-8.28352 -9.5016,-8.28352 l 12.4252,26.79963 31.6723,57.98466 c 0,0 34.8395,43.12304 37.7631,70.16631 2.9236,27.04326 0.9648,97.09203 -6.9598,116.04223 -7.9247,18.9502 7.2355,27.21938 7.2355,27.21938 l 45.825,-2.0673 12.7483,-18.9502 c 0,0 -21.7066,-26.53028 -22.7402,-47.54778 -1.0337,-21.01749 -5.1682,-71.32166 -4.4791,-80.27994 0.6891,-8.95828 15.1601,-46.16958 33.0767,-75.11171 17.9165,-28.94212 26.1857,-56.8506 27.5639,-67.53163 1.3782,-10.68102 -31.6985,61.32975 -31.6985,61.32975 l -32.3876,52.71601 c 0,0 -1.3782,-29.97577 3.4455,-41.34589 4.8236,-11.37012 17.572,-42.37954 21.362,-60.9852 3.79,-18.60565 24.1184,-59.26244 24.1184,-59.26244 l 5.6851,-13.78197 c 0,0 3.79,-20.67294 2.9287,-22.74024 -0.8614,-2.06729 -9.1306,24.63526 -11.3702,27.21938 -2.2395,2.58412 -14.2987,28.94213 -14.2987,28.94213 0,0 -0.8614,-49.61508 -3.6178,-56.33378 -2.7564,-6.71871 -4.8237,65.6366 -6.5464,70.80484 -1.7228,5.16824 -13.8331,61.53119 -23.3348,69.81471 -9.5016,8.28352 -5.6035,4.87266 -5.6035,4.87266 0,0 -7.309,-76.50077 -7.309,-88.92605 0,-12.42528 -4.629,-28.50506 -4.3854,-43.36668 0.2436,-14.86161 -10.4762,-60.17735 -13.3998,-68.94814 -2.9236,-8.77079 -4.8727,-11.20712 -4.8727,-11.20712 0,0 11.6944,92.09328 9.5017,97.20957 -2.1927,5.1163 -18.0288,-34.35225 -16.0798,-53.11199 1.9491,-18.75975 -28.9232,-6.2562 -28.9232,-6.2562 z"
       id="path20" />
    <path
       style="display:inline;fill:#4d5a10;fill-opacity:1"
       d="m 1254.1588,378.31493 c 0,0 -14.4711,-2.75639 -18.9502,4.82369 -4.4792,7.58008 -1.3782,-8.95828 -22.7403,-2.7564 -21.362,6.20189 -17.2274,39.9677 -14.471,42.37955 2.7564,2.41184 -11.3701,-7.23554 -21.3621,15.84926 -9.9919,23.08479 10.6811,45.13593 14.1265,45.48048 3.4455,0.34455 21.3621,10.33647 21.3621,10.33647 l 101.642,-54.43876 -5.1683,-11.37012 c 0,0 -6.5464,-2.75639 -8.6137,-1.72274 -2.0673,1.03364 8.9583,-11.37013 -3.1009,-28.94213 -12.0592,-17.57201 -42.7241,-19.6393 -42.7241,-19.6393 z"
       id="path21" />
    <path
       style="display:inline;fill:#354b12;fill-opacity:1"
       d="m 1189.039,483.05786 c 0,0 18.6057,-1.03365 21.362,-0.6891 2.7564,0.34455 -4.8236,-14.12651 -1.3782,-15.16016 3.4455,-1.03365 2.0673,7.92463 10.3365,7.92463 8.2692,0 8.9583,-0.6891 8.9583,-0.6891 0,0 -1.7227,-15.50471 7.2355,-18.60565 8.9583,-3.10094 4.4792,-3.79004 15.8493,-2.75639 11.3701,1.03365 11.3701,3.10094 11.3701,3.10094 0,0 -2.0673,-22.39569 7.9246,-22.74024 9.992,-0.34455 18.9502,0.6891 21.3621,14.47106 2.4118,13.78197 16.5383,-17.572 11.3701,-20.3284 -5.1682,-2.75639 19.2948,0.6891 20.673,14.12652 1.3782,13.43741 7.9246,17.572 -4.4792,34.11036 -12.4038,16.53836 -4.8237,-6.54643 -9.6474,12.05922 -4.8236,18.60565 -23.0847,15.16016 -24.8075,12.40377 -1.7227,-2.7564 -8.2692,-12.05922 -8.2692,-12.05922 0,0 0.3446,12.05922 -3.1009,16.53836 -3.4455,4.47913 -21.7066,1.03364 -22.7403,-2.7564 -1.0336,-3.79004 7.9247,14.81561 -1.0336,26.53028 -8.9583,11.71467 -17.2275,9.99193 -28.5976,9.64738 -11.3701,-0.34455 -10.3365,-5.16824 -8.9583,-8.61373 1.3782,-3.44549 -2.4118,5.16824 -16.8829,-1.03365 -14.471,-6.20188 -15.5047,-32.73216 -6.8909,-41.69044 8.6137,-8.95828 0.3445,-3.79004 0.3445,-3.79004 z"
       id="path22" />
    <path
       style="display:inline;fill:#3a5113;fill-opacity:1"
       d="m 660.73274,724.07733 c 0,0 2.43633,-21.43971 21.92697,-23.38877 19.49064,-1.94907 19.49064,6.33445 19.49064,6.33445 0,0 12.66892,-2.43633 26.79964,12.66892 14.13071,15.10525 18.51611,-10.23259 18.51611,-10.23259 0,0 -0.97454,-17.54157 15.59251,-15.10524 16.56704,2.43633 17.05431,4.87266 19.00337,9.25805 1.94907,4.3854 13.15619,3.89813 12.18165,-6.33446 -0.97453,-10.23258 0.97454,-18.51611 10.23259,-17.05431 9.25806,1.4618 -6.82172,-9.25805 13.15618,-19.9779 19.97791,-10.71986 33.13409,16.07977 33.13409,16.07977 0,0 5.35993,0.48727 12.18166,4.3854 6.82172,3.89813 -8.28353,-22.9015 15.10524,-23.87604 23.38877,-0.97453 40.93035,-19.00337 40.93035,-19.00337 0,0 4.38539,-8.77079 20.46517,-8.77079 16.07978,0 28.04501,13.52365 28.04501,13.52365 l 43.41318,75.80081 -324.83653,27.61939 z"
       id="path24" />
    <path
       style="display:inline;fill:#223d14;fill-opacity:1"
       d="m 983.79012,707.75391 -0.48726,-12.18165 c 0,0 -31.91593,-15.59251 -29.72323,-28.99233 2.19269,-13.39981 -4.3854,-33.13409 3.65449,-46.04664 8.03989,-12.91255 4.87266,-6.57809 5.1163,-9.50168 0.24363,-2.9236 3.16723,-12.18165 5.11629,-15.10525 1.94906,-2.9236 2.67996,-14.86161 5.84719,-16.81068 3.16723,-1.94906 3.6545,-7.79626 3.6545,-9.50169 0,-1.70543 7.79625,4.87266 10.47622,16.81068 2.67996,11.93802 -0.24364,11.93802 3.16723,16.81068 3.41086,4.87266 5.60356,13.39982 2.19269,14.61798 -3.41086,1.21817 5.60356,7.30899 5.60356,7.30899 l -1.21816,69.67904 c 0,0 4.14176,16.32342 3.16726,17.05432 -0.97457,0.73089 -16.56708,-4.14177 -16.56708,-4.14177 z"
       id="path25" />
    <path
       style="display:inline;fill:#73450a;fill-opacity:1"
       d="m 1154.5769,597.87542 -45.3158,64.31912 h 77.1938 l 4.8237,-7.89577 8.0969,-0.17227 z"
       id="path31" />
    <path
       style="display:inline;fill:#bf6714;fill-opacity:1"
       d="m 1154.7564,597.96499 -46.8587,66.15343 -120.93676,-2.06729 -0.51682,-7.92463 h -13.09287 l 46.34185,-56.50606 z"
       id="path32" />
    <path
       style="display:inline;fill:#5d6310;fill-opacity:1"
       d="m 682.20725,753.18437 c 0,0 10.33647,-28.94213 134.37416,-36.52221 124.03768,-7.58008 129.55046,-10.33647 168.82906,-13.09286 39.27863,-2.7564 189.84653,-0.34455 213.27593,0 23.4293,0.34455 -23.4294,-1.03365 -109.2221,39.2786 -85.7927,40.31224 -94.40645,74.76715 -94.40645,74.76715 z"
       id="path5" />
    <rect
       style="display:inline;fill:#3c330f;fill-opacity:1;stroke-width:0.916696"
       id="rect40"
       width="63.569313"
       height="8.9755917"
       x="1124.6083"
       y="654.2937" />
    <rect
       style="display:inline;fill:#4a3511;fill-opacity:1"
       id="rect39"
       width="138.62718"
       height="11.938018"
       x="986.2265"
       y="654.1546" />
    <rect
       style="display:inline;fill:#f1c46e;fill-opacity:1"
       id="rect26"
       width="147.6416"
       height="45.803009"
       x="982.81561"
       y="658.78369" />
    <rect
       style="display:inline;fill:#b58936;fill-opacity:1;stroke-width:0.994987"
       id="rect27"
       width="62.857319"
       height="45.803009"
       x="1124.61"
       y="658.78363" />
    <rect
       style="display:inline;fill:#5d400a;fill-opacity:1"
       id="rect28"
       width="11.938018"
       height="19.003376"
       x="1008.8843"
       y="672.18347" />
    <rect
       style="display:inline;fill:#5d400a;fill-opacity:1"
       id="rect29"
       width="11.450752"
       height="18.759743"
       x="1094.3995"
       y="672.42712" />
    <rect
       style="display:inline;fill:#5d400a;fill-opacity:1"
       id="rect30"
       width="11.694385"
       height="19.003376"
       x="1150.9224"
       y="672.42712" />
    <rect
       style="display:inline;fill:#533808;fill-opacity:1"
       id="rect31"
       width="17.297945"
       height="32.646824"
       x="1051.7638"
       y="672.42712" />
    <path
       style="display:inline;fill:#536318;fill-opacity:1"
       d="m 489.70236,698.73949 c 0,0 0.48727,-31.67229 -18.02884,-33.13409 -18.51611,-1.4618 -16.56704,3.89813 -16.56704,3.89813 0,0 -4.87267,-22.41424 -14.61799,-22.9015 -9.74532,-0.48727 -10.53712,0 -10.53712,0 0,0 -2.25361,-18.63793 -16.87159,-18.75975 -14.61798,-0.12181 -18.39429,2.1927 -22.53605,7.309 -4.14177,5.11629 -8.89261,-2.1927 -8.89261,-2.1927 l -156.316,-29.65308 c 0,0 -0.17227,-18.77792 -14.98788,-22.22341 -14.81562,-3.4455 -12.74832,1.03364 -12.74832,1.03364 0,0 -0.51683,-13.60969 -11.19785,-15.16016 -10.68102,-1.55047 -26.18573,-3.61776 -36.69448,6.71871 -10.50875,10.33647 -24.89367,0 -24.89367,0 0,0 -9.12556,-6.58897 -20.53799,0 -11.412432,6.58897 -5.969008,-9.2984 -18.881558,-12.70926 -12.912549,-3.41086 -21.221099,-3.22614 -31.126886,0.99459 -9.905787,4.22073 -37.455808,1.80719 -37.455808,1.80719 0,0 -6.8217243,-15.83615 -17.29794403,-17.54158 C -10.963486,544.51979 2.7563929,682.20725 2.7563929,682.20725 Z"
       id="path41" />
    <path
       style="display:inline;fill:#3d5513;fill-opacity:1"
       d="m -0.73089905,593.73366 c 0,0 21.43970505,20.46518 22.90150405,22.41424 1.461798,1.94906 34.352255,4.87266 34.352255,4.87266 0,0 8.283522,-12.18165 20.708806,-12.91255 12.425284,-0.7309 1.461798,10.23259 10.719853,-2.43633 9.258055,-12.66892 28.505061,-8.52716 35.814051,6.57809 7.30899,15.10525 1.82258,8.02478 7.76606,3.11495 5.94347,-4.90982 9.30282,-5.25437 15.07402,-5.68506 5.7712,-0.43068 0.6891,-10.85329 17.83042,-10.07806 17.14131,0.77524 18.41051,15.8154 18.41051,15.8154 0,0 -0.48727,8.28352 4.99448,1.94906 5.48174,-6.33445 18.15066,-1.94906 23.51058,6.82173 5.35993,8.77079 5.08584,8.43579 5.08584,8.43579 0,0 -1.43883,-10.54015 15.2718,-8.30058 16.71063,2.23957 56.33378,5.85733 56.33378,5.85733 L 272.8829,676.69446 0,655.37281 Z"
       id="path42" />
    <path
       style="display:inline;fill:#435612;fill-opacity:1"
       d="m 265.64737,558.85867 c 0,0 -8.786,-11.5424 -0.17228,-27.04711 8.61373,-15.50471 21.18978,-8.786 21.18978,-8.786 0,0 3.27321,-13.09287 15.50471,-12.92059 12.23149,0.17227 17.39973,6.20188 19.29475,10.50875 1.89502,4.30686 0.86137,-2.41185 9.13055,-2.92867 8.26918,-0.51683 21.53432,9.4751 22.22342,20.3284 0.68909,10.85329 0.17227,10.50874 0.17227,10.50874 0,0 16.71063,-2.06729 19.81157,17.57201 3.10095,19.6393 -5.51278,30.4926 -5.51278,30.4926 z"
       id="path43" />
    <path
       style="display:inline;fill:#364d14;fill-opacity:1"
       d="m 245.1467,590.38491 c 0,0 -12.74832,-21.01749 0.68909,-28.08075 13.43742,-7.06326 19.6393,-3.96232 19.6393,-3.96232 0,0 -0.34454,-3.44549 -2.06729,-4.47913 -1.72275,-1.03365 15.33244,-6.89099 21.18977,-2.58412 5.85734,4.30686 -2.75639,-13.26514 15.50471,-8.26918 18.2611,4.99596 12.05922,15.50471 12.05922,15.50471 0,0 10.50875,-4.30687 14.81561,-2.75639 4.30687,1.55047 12.05922,8.44145 12.2315,17.74427 0.17227,9.30283 -1.41143,-4.49709 10.16114,-2.06076 11.57256,2.43633 10.96348,14.61798 10.96348,14.61798 0,0 7.43081,0.85272 9.01442,4.99448 1.58362,4.14176 -3.16723,5.84719 -3.16723,5.84719 0,0 16.2691,8.12736 17.30275,17.77473 1.03364,9.64738 2.58412,12.2315 -1.3782,18.43338 -3.96231,6.20189 -9.99192,4.47914 -9.99192,4.47914 0,0 15.50471,10.33647 13.26514,23.08479 -2.23957,12.74832 -18.43338,20.15612 -18.43338,20.15612 l -3.68798,6.94696 -115.48205,-20.95244 -2.1927,-11.45075 c 0,0 -2.9236,-10.59804 -2.1927,-14.25254 0.7309,-3.65449 2.67997,-9.6235 5.1163,-11.8162 2.43633,-2.19269 -10.76679,1.56535 -18.00232,-7.73747 -7.23553,-9.30283 -7.06326,-19.12248 -1.03365,-23.08479 6.02961,-3.96232 5.51279,-4.99597 15.67699,-8.09691 z"
       id="path44" />
    <path
       style="display:inline;fill:#263b10;fill-opacity:1"
       d="m 298.20681,669.50353 c 0,-1.21816 1.4618,-21.43971 -0.97453,-26.06873 -2.43633,-4.62903 -14.61798,-26.556 -17.29794,-28.7487 -2.67997,-2.1927 -10.23259,-11.45075 -10.23259,-11.45075 l -0.97453,-6.33446 c 0,0 18.75974,16.56705 21.4397,21.19607 2.67997,4.62903 9.59081,16.73479 9.59081,16.73479 0,0 1.72275,-17.74428 0.51683,-22.56797 -1.20593,-4.82369 2.06729,-8.786 2.06729,-8.786 l -1.72275,-15.84926 c 0,0 8.95828,16.88291 9.81965,18.60565 0.86138,1.72275 4.99597,1.3782 9.81965,-3.79004 4.82369,-5.16824 7.75236,-4.30686 7.75236,-4.30686 0,0 -9.30283,13.60969 -9.99193,16.8829 -0.68909,3.27322 -0.17227,8.26918 -0.17227,8.26918 0,0 15.67698,-8.95827 20.15612,-13.78196 4.47914,-4.82369 -9.4751,15.33243 -16.53835,18.60565 -7.06326,3.27322 -9.30283,1.20592 -10.8533,9.4751 -1.55047,8.26918 -7.06326,36.34993 -7.06326,36.34993 z"
       id="path45" />
    <path
       style="display:inline;fill:#314815;fill-opacity:1"
       d="m 336.96904,666.35799 c 0,0 267.72811,41.15229 315.48018,52.35941 47.75207,11.20712 169.64497,24.13049 290.23716,52.38352 120.59222,28.25303 218.44412,62.01884 244.62992,73.73351 26.1857,11.71467 276.4309,105.33433 301.7687,132.62123 25.3378,27.28694 55.5483,51.65024 55.5483,51.65024 l -1150.46911,4.5414 z"
       id="path47" />
    <path
       style="display:inline;fill:#be7b19;fill-opacity:1"
       d="m 385.20591,684.27455 c 0,0 291.48855,48.92597 352.8183,65.46433 61.32974,16.53836 152.97981,26.87483 205.35127,47.54778 52.37147,20.67294 229.46972,79.93539 305.95962,122.65948 76.4899,42.72409 167.4509,88.20456 179.1655,107.49936 11.7147,19.2947 -390.0296,4.8237 -410.7025,-3.4455 -20.67296,-8.2692 -632.59219,-339.72545 -632.59219,-339.72545 z"
       id="path26" />
    <path
       style="display:inline;fill:#7d5e18;fill-opacity:1"
       d="m 1264.9426,1025.2077 c 0,0 -162.2596,-123.76554 -215.8588,-148.61611 -53.59929,-24.85056 -123.62487,-64.14477 -142.91962,-68.96846 -19.29475,-4.82369 -113.70121,-35.14401 -120.59219,-35.14401 -6.89099,0 -68.90983,-11.02557 -68.90983,-11.02557 0,0 118.5249,31.69852 132.30686,39.9677 13.78197,8.26917 48.92598,6.20188 96.47376,39.96769 47.54777,33.76582 84.07002,33.07672 149.53432,82.00269 65.4643,48.92598 139.8869,103.36477 139.8869,103.36477 l 12.4038,11.0255 z"
       id="path27" />
    <path
       style="display:inline;fill:#9c6b18;fill-opacity:1"
       d="m 1159.2059,1025.695 c 0,0 -122.3038,-105.73673 -138.3836,-112.55845 -16.0797,-6.82173 -57.01009,-36.54496 -63.83181,-38.00675 -6.82172,-1.4618 -51.6502,-27.77417 -11.69438,15.59251 39.95581,43.36668 130.58729,137.40899 130.58729,137.40899 z"
       id="path29" />
    <path
       style="display:inline;fill:#99680e;fill-opacity:1"
       d="m 699.77926,758.35261 -92.68372,-20.67295 c 0,0 5.16824,4.13459 14.12652,6.89098 8.95827,2.75639 57.19515,11.02557 57.19515,11.02557 z"
       id="path28" />
    <path
       style="display:inline;fill:#424f11;fill-opacity:1"
       d="m -0.48726603,624.43142 c 0,0 124.49647603,12.42529 138.13991603,14.13072 13.64345,1.70543 122.48193,16.08118 149.70131,24.35036 27.21938,8.26918 93.02826,18.60565 98.8856,20.3284 5.85733,1.72274 162.28263,52.71601 176.0646,58.9179 13.78196,6.20188 106.12113,31.69852 152.97981,38.5895 46.85868,6.89098 78.55719,26.53028 78.55719,26.53028 0,0 3.4455,-10.33647 19.98385,9.99192 16.53836,20.3284 21.36205,9.99193 21.36205,9.99193 0,0 29.97577,8.95828 37.9004,18.9502 7.92463,9.99192 27.38017,10.88832 35.66369,21.60818 8.28352,10.71985 11.69439,-8.77079 40.44308,24.85056 28.7487,33.62136 -19.9779,-38.49401 42.87941,36.05769 C 1054.931,1003.2808 1056.3876,975.7631 1076.3714,1024 1096.3553,1072.2369 0,1025.3782 0,1025.3782 Z"
       id="path46" />
    <path
       style="display:inline;fill:#435612;fill-opacity:1"
       d="m -1.3781965,673.93807 c 0,0 108.8775165,-4.13459 165.3835765,6.89098 56.50605,11.02558 126.79407,19.29475 202.59488,41.3459 75.80081,22.05114 165.38358,41.34589 219.13324,68.90982 53.74966,27.56393 169.51816,62.01884 212.24225,84.06999 42.72409,22.05114 147.46703,89.58277 164.00538,103.36473 16.53836,13.78197 75.80077,49.61511 75.80077,49.61511 H -2.7563929 Z"
       id="path30" />
    <path
       style="display:inline;fill:#1a320f;fill-opacity:1"
       d="m -2.9235962,404.43081 c 0,0 15.1052472,13.15618 20.9524392,9.25805 5.847193,-3.89813 34.108623,19.00338 34.108623,19.00338 0,0 10.719852,1.4618 20.952439,0.48726 10.232587,-0.97453 146.667075,-19.9779 146.667075,-19.9779 0,0 16.56705,-5.35993 17.54158,-26.79964 0.97453,-21.4397 1.12943,-1.36832 1.12943,-1.36832 0,0 15.67698,4.47914 22.05114,-3.27322 6.37416,-7.75235 11.19785,-13.78196 10.8533,-18.2611 -0.34455,-4.47914 -98.36877,-120.24764 -98.36877,-120.24764 l -196.393,-58.57335 z"
       id="path35" />
    <path
       style="display:inline;fill:#405214;fill-opacity:1"
       d="m 243.14575,353.26787 c 0,0 22.41424,3.41087 27.2869,9.74533 4.87266,6.33445 32.15956,-15.10525 19.00337,-42.39215 -13.15618,-27.2869 -23.09955,-14.14461 -20.51543,-44.63721 2.58411,-30.49259 -2.23957,-27.21938 -2.23957,-27.21938 0,0 2.23957,-3.44549 -9.81965,-9.64737 -12.05922,-6.20189 -7.92463,1.20592 -7.92463,1.20592 0,0 1.76163,-22.27146 -5.18191,-30.18953 -6.94354,-7.91808 -13.76526,-17.17613 -31.55047,-20.34336 -17.78521,-3.16723 -17.05431,9.50169 -17.05431,9.50169 0,0 -6.09083,-15.34888 -17.05431,-19.97791 -10.96349,-4.62903 -23.38877,-4.87266 -28.7487,-2.43633 -5.35993,2.43633 -9.25806,9.74532 -9.25806,9.74532 0,0 -7.06535,-4.87266 -11.69438,-3.16723 -4.62903,1.70543 -0.05,-9.80291 -11.76472,-18.07208 -11.71467,-8.26918 -16.710636,-4.99597 -16.710636,-4.99597 0,0 1.432096,-22.97859 -7.338698,-28.09488 -8.770788,-5.1163 -11.207118,-11.93802 -23.632402,-11.20712 -12.425284,0.7309 -10.232587,2.43633 -10.232587,2.43633 0,0 8.283523,-27.774164 -16.079779,-40.930347 C 18.272476,69.43541 14.861614,78.693464 14.861614,78.693464 c 0,0 -6.5924352,-16.330074 -14.17251577,-16.330074 -7.58008053,0 -2.06729473,185.71197 -2.06729473,185.71197 l 78.5571985,6.20189 5.899857,-0.16801 c 0,0 9.258054,9.25805 18.759741,3.16723 9.50169,-6.09083 14.61798,-23.63241 11.45075,-28.26143 -3.16723,-4.62903 5.60356,0.48726 9.25806,-4.62903 3.65449,-5.11629 4.14176,-20.70881 1.94906,-22.41424 -2.1927,-1.70543 7.55263,-4.87266 18.27248,21.92697 10.71985,26.79963 -6.33446,31.67229 -6.33446,31.67229 0,0 11.45075,-6.09082 22.1706,4.87267 10.71986,10.96348 7.30899,19.9779 7.30899,19.9779 0,0 15.34888,-15.83614 33.86499,-5.60356 18.51611,10.23259 17.78521,27.2869 17.78521,27.2869 0,0 15.83615,-2.43633 26.06874,18.02884 10.23258,20.46518 -0.48727,33.13409 -0.48727,33.13409 z"
       id="path36" />
    <path
       style="display:inline;fill:#405214;fill-opacity:1"
       d="m 114.02025,191.98282 66.75545,26.31236 85.75882,124.74011 -33.62136,17.54157 L 94.042344,219.26972 Z"
       id="path49" />
    <path
       style="display:inline;fill:#27300d;fill-opacity:1"
       d="m 0,749.90243 h 54.08653 c 0,0 3.410862,-93.55508 2.43633,-100.86407 -0.974532,-7.30899 -0.974532,-64.80639 -0.974532,-64.80639 0,0 5.847192,-29.23596 24.850568,-42.87941 19.003375,-13.64345 54.573794,-36.05768 54.573794,-36.05768 l 16.28437,-104.58426 29.28668,-63.05249 -14.81561,-7.92463 -23.77389,75.11171 -6.89099,-8.61373 1.3782,-55.12785 -5.16824,2.41184 -9.99192,59.607 -13.43742,56.1615 12.74832,26.53028 -3.79004,15.50471 c 0,0 -32.043067,17.91656 -34.79946,18.60566 -2.756393,0.6891 24.80754,-44.79139 24.80754,-44.79139 l -24.80754,2.75639 -11.370121,21.36205 c 0,0 -18.605652,21.70659 -21.362045,22.74024 -2.756393,1.03365 -1.033648,-62.36339 0.344549,-72.01076 1.378196,-9.64738 5.168237,-49.95963 12.403768,-58.9179 7.235531,-8.95828 29.631224,-38.24495 36.866755,-42.37954 7.235534,-4.13459 26.530284,-28.25303 26.530284,-28.25303 l -9.64738,-6.89098 -7.92463,-1.3782 -5.85733,19.29475 c 0,0 -18.261105,16.19381 -24.462989,7.92463 -6.201884,-8.26918 -1.722745,11.71467 -8.613728,21.0175 -6.890982,9.30282 -14.471063,17.91655 -17.916554,18.60565 -3.445491,0.6891 -12.059219,1.37819 -12.403768,-3.44549 -0.344549,-4.82369 3.79004,-113.70121 2.756393,-115.42396 -1.033647,-1.72274 -19.983849,2.41185 -19.983849,2.41185 l 1.722746,46.16958 c 0,0 1.033647,26.53028 -3.100942,30.32032 -4.13459,3.79004 -11.025572,1.3782 -21.7065946,-12.74832 -10.6810224,-14.12651 1.37819648,21.0175 1.37819648,21.0175 0,0 14.81561212,8.26918 16.53835712,23.42934 1.722746,15.16016 -0.172274,81.65814 -0.172274,81.65814 0,0 -12.7483174,-11.37012 -16.19380856,-25.32436 -3.44549114,-13.95424 -3.44549114,33.24899 -3.44549114,33.24899 0,0 4.30686393,0.17227 6.2018841,4.30686 1.8950201,4.13459 7.1612023,63.5719 7.1612023,86.4734 0,22.90151 -2.9235962,59.44646 -2.9235962,59.44646 0,0 -3.8981283,33.13409 -10.2325867,41.90488 C -9.7453207,661.22001 0,749.90243 0,749.90243 Z"
       id="path38" />
    <path
       style="display:inline;fill:#364d11;fill-opacity:1"
       d="m -2.7563929,726.30954 c 0,0 416.2153329,38.5895 514.0672829,97.85195 97.85195,59.26244 169.51816,27.56393 311.4724,108.87752 141.95424,81.31359 154.358,101.98649 154.358,101.98649 H -2.7563929 Z"
       id="path33" />
    <path
       style="display:inline;fill:#1d3610;fill-opacity:1"
       d="m -4.1345894,811.75772 c 0,0 183.3001294,-4.13459 275.6392894,16.53836 92.33917,20.67294 209.48587,33.07671 246.69717,53.74966 37.21131,20.67294 187.43472,46.85868 253.58815,77.179 66.15343,30.32032 123.34858,44.10226 139.19784,58.57336 15.84926,14.4711 8.26918,17.2274 8.26918,17.2274 l -942.64581,1.8766 z"
       id="path34" />
    <path
       style="display:inline;fill:#304515;fill-opacity:1"
       d="m 0.28020913,164.90892 c 0,0 24.46299087,5.16823 27.21938387,31.69851 2.756393,26.53029 -3.100942,-2.75639 8.958277,-4.13459 12.059219,-1.37819 24.807537,10.68103 26.530282,22.3957 1.722746,11.71467 -1.033647,18.9502 -1.033647,18.9502 0,0 18.605652,2.75639 19.6393,13.78196 1.033647,11.02557 -0.689099,26.87483 -8.958277,30.32033 -8.269179,3.44549 -12.403769,11.02557 -23.42934,7.58008 -11.025572,-3.4455 -10.336474,-11.71467 -10.336474,-11.71467 0,0 -9.991924,7.23553 -17.227456,6.54643 -7.235531,-0.6891 -22.05113887,-19.29475 -22.05113887,-19.29475 z"
       id="path37" />
    <path
       style="display:inline;fill:#2c4112;fill-opacity:1"
       d="m 87.951519,256.54557 c 0,0 26.799631,-3.89813 24.606931,-28.0178 -2.19269,-24.11967 12.91255,-27.53053 12.91255,-27.53053 0,0 13.15619,4.14176 16.32342,23.87603 3.16723,19.73428 -4.3854,28.99233 -4.3854,28.99233 0,0 9.98896,-2.92359 16.56705,3.16723 6.57809,6.09083 11.93801,13.88708 12.42528,20.22154 0.48727,6.33446 2.9236,-6.33446 19.49064,-5.60356 16.56705,0.7309 27.04327,10.71986 28.99233,17.05432 1.94907,6.33445 2.67996,13.88708 2.67996,13.88708 0,0 13.39982,-0.48727 18.75975,6.57809 5.35992,7.06536 11.69438,18.27247 9.74532,27.77416 -1.94907,9.50169 -1.4618,15.83615 -4.14176,16.56705 -2.67997,0.7309 -8.52716,3.89813 -8.52716,3.89813 0,0 5.11629,6.57809 0.97453,7.79625 -4.14176,1.21817 -9.98895,-6.57809 -9.50169,-7.79625 0.48727,-1.21817 -10.23258,17.54157 -18.27247,19.247 -8.03989,1.70544 -18.02884,-3.16723 -20.22154,-6.33445 -2.1927,-3.16723 -1.4618,-12.42529 -1.4618,-12.42529 0,0 -11.93802,7.79626 -16.81068,6.82173 -4.87266,-0.97454 -15.59251,-7.55263 -15.34888,-13.39982 0.24363,-5.84719 -5.35992,7.06536 -15.59251,7.30899 -10.23259,0.24363 -19.49064,-8.77079 -19.24701,-16.56704 0.24363,-7.79626 1.70543,-11.69439 4.14176,-12.18166 2.43633,-0.48726 -17.05431,0 -18.51611,-5.60355 -1.4618,-5.60356 -8.770786,-13.15619 -3.654493,-24.85057 5.116293,-11.69439 13.643453,-15.59252 13.887083,-32.40319 0.24363,-16.81068 -1.21817,-10.47622 -5.84719,-0.97454 -4.62903,9.50169 -9.745324,14.13072 -15.83615,14.13072 -6.090825,0 -4.141761,-23.6324 -4.141761,-23.6324 z"
       id="path39" />
    <path
       style="display:inline;fill:#3d5113;fill-opacity:1"
       d="m 72.010765,468.24225 c 0,0 -12.748317,-12.40377 -11.025571,-25.84118 1.722745,-13.43742 12.059219,-13.78197 12.059219,-13.78197 0,0 -3.100942,-20.3284 7.924629,-23.77389 11.025572,-3.44549 20.672948,-2.06729 24.118438,6.20189 3.44549,8.26918 -0.34455,-17.91656 20.3284,-19.29475 20.67295,-1.3782 30.66487,13.09286 30.66487,13.09286 0,0 8.26918,-8.95827 21.70659,-7.58008 13.43742,1.3782 21.36205,11.71467 24.11844,18.2611 2.7564,6.54644 -2.06729,-6.20188 17.91656,-1.37819 19.98385,4.82369 15.50471,28.94212 15.50471,28.94212 0,0 15.16016,-2.06729 17.91655,12.40377 2.75639,14.47107 4.47914,28.25303 -2.41184,34.45491 -6.89099,6.20189 -19.6393,5.16824 -19.6393,5.16824 0,0 -45.48049,6.89098 -47.20323,6.89098 -1.72275,0 -111.978465,-33.76581 -111.978465,-33.76581 z"
       id="path40" />
    <path
       style="display:inline;fill:#304517;fill-opacity:1"
       d="m 71.87174,466.80086 c 0,0 0.487266,17.29794 6.090825,19.00338 5.60356,1.70543 13.399816,6.82172 20.221541,2.43633 6.821724,-4.3854 -1.218165,5.84719 7.308994,9.74532 8.52715,3.89812 11.45075,-0.7309 11.45075,-0.7309 0,0 -0.24363,9.98895 3.89813,12.18165 4.14176,2.1927 9.74532,8.28352 18.51611,6.82172 8.77078,-1.4618 12.66891,-9.01442 12.66891,-9.01442 0,0 10.23259,14.86162 16.32341,16.07978 6.09083,1.21817 16.56705,4.62903 23.38877,-0.24363 6.82173,-4.87266 8.52716,-11.20712 8.52716,-11.20712 0,0 8.28352,5.84719 14.13071,5.84719 5.8472,0 13.64345,-5.84719 15.83615,-11.45075 2.1927,-5.60356 1.4618,-10.96349 1.4618,-10.96349 0,0 -16.56705,3.6545 -22.41424,-13.88708 -5.84719,-17.54158 -16.07978,-5.11629 -16.07978,-5.11629 0,0 3.16723,-21.43971 -12.91255,-24.3633 -16.07978,-2.9236 -24.60693,7.30899 -24.85057,10.47622 -0.24363,3.16723 -12.42528,-10.71986 -20.95243,-9.25806 -8.52716,1.4618 -15.83615,8.52716 -18.75975,15.10525 -2.92359,6.57809 -18.759739,10.23259 -26.312363,-1.4618 -7.552623,-11.69438 -17.541577,0 -17.541577,0 z"
       id="path48" />
    <path
       style="display:inline;fill:#404f10;fill-opacity:1"
       d="m 686.34184,1025.0336 1.03365,-43.75772 c 0,0 1.72274,-8.61372 8.61373,-7.92463 6.89098,0.6891 17.572,-0.68909 20.32839,-2.41184 2.7564,-1.72274 17.57201,-17.572 17.57201,-17.572 0,0 -11.63954,-7.46222 -21.75031,-5.39134 -10.11077,2.07088 -14.61798,0.60908 -18.75974,7.67444 -4.14176,7.06536 -5.72538,11.8162 -5.72538,11.8162 l 1.44404,-59.57979 -8.63121,3.30056 -0.12182,52.13747 c 0,0 -10.23259,-19.85609 -16.44523,-22.17061 -6.21264,-2.31451 -21.31789,-4.75084 -27.04326,-2.31451 -5.72538,2.43633 -6.45628,0.60908 -6.45628,0.60908 0,0 18.51611,24.36331 23.6324,27.04327 5.1163,2.67996 17.29795,2.67996 19.61246,4.01994 2.31452,1.33999 5.96901,2.31452 5.48175,16.2016 -0.48727,13.88708 0,38.61588 0,38.61588 z"
       id="path57" />
    <path
       style="display:inline;fill:#304313;fill-opacity:1"
       d="m 693.74965,966.9771 c 0,0 11.54239,-10.1642 19.81157,-10.68103 8.26918,-0.51682 -2.23957,-0.51682 -19.81157,10.68103 z"
       id="path58" />
    <path
       style="display:inline;fill:#304313;fill-opacity:1"
       d="m 671.93986,963.6904 c 0,0 -15.10525,-19.00338 -25.33783,-18.63793 -10.23259,0.36545 3.65449,-3.65449 25.33783,18.63793 z"
       id="path59" />
    <path
       style="display:inline;fill:#db8b01;fill-opacity:1"
       d="m 687.65419,930.73903 c 0,0 6.57809,-6.27355 6.51718,-14.43525 -0.0609,-8.16171 -5.05538,-16.01887 3.47177,-3.10632 8.52716,12.91255 14.28147,8.6437 14.28147,8.6437 0,0 1.29206,-14.5572 -3.35935,-17.572 -4.65141,-3.01481 -2.82132,-4.59334 -1.05498,-3.25335 1.76634,1.33998 8.16171,4.08085 12.24256,3.41086 4.08085,-0.66999 7.55262,-0.12182 7.61353,-1.82725 0.0609,-1.70543 -6.65575,-12.80133 -10.61807,-13.83497 -3.96231,-1.03365 2.0673,-0.60296 8.786,-1.89502 6.71871,-1.29206 8.89743,-5.03972 8.89743,-5.03972 0,0 -5.60356,-7.67444 -9.98895,-7.91808 -4.3854,-0.24363 -8.52716,-1.70543 -12.91255,-0.7309 -4.3854,0.97454 5.84719,-2.43633 11.57256,-8.1617 5.72538,-5.72538 4.87267,-9.50169 4.87267,-9.50169 0,0 -2.91491,-2.75827 -8.38463,-1.68156 -5.46972,1.07672 -9.60431,1.72275 -11.41319,3.5747 -1.80888,1.85195 5.38358,-6.24495 6.89098,-12.18843 1.50741,-5.94347 0.51683,-8.82907 0.51683,-8.82907 0,0 -6.80485,-1.93809 -12.40377,3.27322 -5.59892,5.2113 -7.53701,12.70525 -7.53701,12.70525 0,0 2.28264,-13.17901 1.03365,-17.74428 -1.249,-4.56528 -4.60835,-6.93405 -4.60835,-6.93405 0,0 -6.89098,5.34051 -8.35532,12.23149 -1.46433,6.89098 -1.67967,8.82907 -4.13458,-1.85195 -2.45492,-10.68102 -10.035,-10.07806 -10.035,-10.07806 0,0 -5.9004,7.2786 -2.62718,18.60565 3.27321,11.32705 -0.99058,-0.60296 -8.39839,-5.21131 -7.40781,-4.60834 -15.67698,-3.27321 -7.45087,11.84388 8.22611,15.11709 6.07267,3.05787 -6.63257,4.86676 -12.70525,1.80888 -8.6568,6.67564 -3.5747,10.33647 5.0821,3.66083 7.14939,4.43607 8.35531,4.78062 1.20593,0.34455 7.9677,0.60296 -6.84791,6.54643 -14.81561,5.94347 -5.85733,10.07806 -3.53163,10.89637 2.32571,0.8183 13.69583,2.45491 17.22746,0.34455 3.53163,-2.11037 -5.29744,3.57469 -11.6716,13.65276 -6.37416,10.07806 7.36473,8.9152 11.84387,5.68506 4.47914,-3.23015 10.59489,-9.56124 6.41723,1.80888 -4.17766,11.37012 4.2638,22.95558 10.63795,8.74293 6.37416,-14.21265 5.94348,-15.63391 7.36474,-2.54105 1.42127,13.09287 6.99741,12.38643 6.99741,12.38643 z"
       id="path60" />
    <ellipse
       style="display:inline;fill:#4b3705;fill-opacity:1"
       id="path61"
       cx="683.69519"
       cy="878.54065"
       rx="22.353329"
       ry="22.170605" />
    <ellipse
       style="display:inline;fill:#2e2d0a;fill-opacity:1"
       id="path62"
       cx="683.32971"
       cy="877.80975"
       rx="10.902577"
       ry="11.328936" />
    <path
       style="display:inline;fill:#3e4e0e;fill-opacity:1"
       d="m 556.45781,1026.4259 0.7309,-44.58484 c 0,0 2.70361,-15.98375 11.66188,-16.75898 8.95828,-0.77524 14.90175,2.41184 20.84522,-2.15344 5.94348,-4.56527 20.97035,-19.70341 22.91941,-25.67242 1.94907,-5.96901 -32.64682,-4.75085 -36.78858,-1.70543 -4.14177,3.04541 -11.08531,6.33445 -13.64345,19.12519 -2.55815,12.79073 -5.23811,15.95796 -5.23811,15.95796 0,0 1.4618,-36.9104 0.24363,-42.87941 -1.21817,-5.96901 -1.4618,-51.16293 -1.4618,-51.16293 l -6.21264,-0.24364 c 0,0 2.80178,48.36116 2.55815,59.20283 -0.24364,10.84166 -1.33998,34.47407 -1.33998,34.47407 0,0 -5.35993,-3.77631 -5.8472,-7.30899 -0.48726,-3.53268 -0.97453,-20.22154 -4.87266,-24.3633 -3.89813,-4.14177 -6.57809,-10.23259 -15.83614,-12.42529 -9.25806,-2.1927 -23.63241,-1.4618 -28.13962,-0.24363 -4.50721,1.21816 -7.06535,1.82725 -7.06535,1.82725 0,0 16.81067,17.90702 21.07425,23.99785 4.26358,6.09082 22.17061,9.13624 24.97239,8.03989 2.80178,-1.09635 8.52715,8.40534 9.74532,9.98895 1.21816,1.58362 4.62902,6.45628 4.26357,23.02332 -0.36545,16.56709 -0.60908,35.44859 -0.60908,35.44859 z"
       id="path63" />
    <path
       style="display:inline;fill:#384a11;fill-opacity:1"
       d="m 511.13861,935.1063 c 0,0 19.46703,10.50875 26.35801,18.9502 6.89098,8.44146 -7.06325,-14.55719 -12.14535,-16.10767 -5.0821,-1.55047 -9.56124,-3.53163 -14.21266,-2.84253 z"
       id="path64" />
    <path
       style="display:inline;fill:#384a11;fill-opacity:1"
       d="m 599.94615,942.77252 c 0,0 -16.19381,1.11979 -21.18977,5.34051 -4.99596,4.22073 -10.42261,11.62854 -10.42261,11.62854 0,0 14.38492,-14.5572 31.61238,-16.96905 z"
       id="path65" />
    <path
       style="display:inline;fill:#db9003;fill-opacity:1"
       d="m 555.23965,896.08224 c 0,0 6.20314,22.74412 16.88416,24.72528 10.68102,1.98115 -0.77524,-31.09556 -1.89502,-31.69852 -1.11979,-0.60296 16.36608,15.41857 22.82638,14.5572 6.46029,-0.86138 1.98116,-13.35128 0.34455,-15.2463 -1.63661,-1.89502 -6.71871,-10.76716 -10.8533,-12.83446 -4.13459,-2.06729 7.92463,4.13459 17.31359,3.61777 9.38897,-0.51682 14.12652,-1.80888 15.16016,-3.10094 1.03365,-1.29206 -8.87214,-12.40377 -11.97308,-13.8681 -3.10094,-1.46434 -13.179,-5.68506 -16.96904,-5.42665 -3.79004,0.25841 13.60969,0.25841 20.67295,-5.94348 7.06325,-6.20188 6.7187,-8.87214 6.7187,-8.87214 0,0 -6.28802,-5.94347 -12.57604,-6.11574 -6.28802,-0.17228 -14.38493,1.11978 -16.10767,2.23957 -1.72275,1.11978 10.8533,-7.40781 12.74832,-11.19785 1.89502,-3.79004 5.34051,-9.73351 5.34051,-11.71467 0,-1.98116 -7.1494,-4.65141 -13.69583,-2.32571 -6.54643,2.32571 -12.92059,6.20189 -14.47106,7.66622 -1.55047,1.46434 3.35935,-6.37416 3.53163,-16.10767 0.17227,-9.73351 -2.15344,-11.45626 -2.15344,-11.45626 0,0 -7.23553,-0.34455 -13.78196,8.01077 -6.54643,8.35532 -5.25437,12.05922 -5.25437,12.05922 0,0 0,-15.76312 -6.89099,-20.67295 -6.89098,-4.90982 -5.94347,-6.71871 -5.94347,-6.71871 0,0 -7.32167,11.97309 -7.14939,16.79677 0.17227,4.82369 4.13459,20.06999 -5.59893,3.10095 -9.73351,-16.96905 -30.40646,-9.64738 -18.51951,6.46029 11.88694,16.10767 13.35128,17.91656 4.22072,12.48991 -9.13055,-5.42665 -13.69582,-4.73755 -18.51951,-4.56528 -4.82369,0.17228 -6.97712,1.80888 -7.83849,2.32571 -0.86138,0.51682 2.58412,8.95827 6.37416,11.88694 3.79004,2.92867 7.92463,8.26918 11.62853,9.04442 3.7039,0.77523 12.23149,3.0148 1.11978,2.92866 -11.11171,-0.0861 -17.74428,5.85734 -19.38088,6.80485 -1.63661,0.94751 -5.34052,4.22073 -6.02961,5.94347 -0.6891,1.72275 11.97308,7.32167 13.52355,7.58008 1.55047,0.25841 9.99192,1.03365 12.40377,0.34455 2.41184,-0.6891 9.73351,-2.15343 1.11978,2.41185 -8.61373,4.56527 -13.78196,16.96904 -14.72947,23.51547 -0.94751,6.54644 20.50067,-0.60296 23.25706,-5.59892 2.7564,-4.99596 -2.75639,2.84253 -2.84253,21.96501 -0.0861,19.12247 20.67295,-8.87214 20.93136,-12.66218 0.25841,-3.79004 -0.6891,11.8008 3.35935,21.10363 4.04846,9.30282 4.47914,7.14939 8.78601,-0.17228 4.30686,-7.32166 5.16572,-16.89066 4.90857,-21.27978 z"
       id="path66" />
    <ellipse
       style="display:inline;fill:#503808;fill-opacity:1"
       id="path67"
       cx="549.55585"
       cy="855.94617"
       rx="28.425303"
       ry="29.028263" />
    <ellipse
       style="display:inline;fill:#2a2c0a;fill-opacity:1"
       id="path68"
       cx="550.6756"
       cy="856.9798"
       rx="14.212651"
       ry="14.90175" />
    <path
       style="display:inline;fill:#4a5912;fill-opacity:1"
       d="m 396.92058,1028.1346 0.34455,-16.1938 c 0,0 -13.78196,-9.3029 -23.42934,-12.05926 -9.64737,-2.7564 -39.9677,-23.77389 -39.9677,-23.77389 0,0 18.95021,-10.33648 28.94213,-4.13459 9.99192,6.20188 20.3284,25.15208 24.11844,29.63124 3.79004,4.4791 11.71467,8.6137 10.68102,-6.54645 -1.03365,-15.16016 0.6891,-25.15209 -2.41184,-29.28668 -3.10095,-4.13459 -5.85734,-14.47106 -14.12652,-15.50471 -8.26918,-1.03364 -23.08479,-4.13459 -25.49663,-8.61372 -2.41185,-4.47914 -15.50471,-23.77389 -20.3284,-24.11844 -4.82369,-0.34455 15.16016,-11.37012 30.66487,-5.51279 15.50471,5.85734 20.67295,15.16016 21.7066,22.39569 1.03364,7.23554 -0.97216,13.0716 4.14413,19.40606 5.11629,6.33446 4.50721,7.91807 4.62903,-7.67444 0.12182,-15.59251 0.12182,-80.52071 0.12182,-80.52071 l 7.79625,-1.4618 -1.33998,18.88156 1.33998,75.2826 c 0,0 5.1163,-2.80178 6.09083,-13.76526 0.97453,-10.96349 11.32893,-26.67782 19.36882,-30.9414 8.03989,-4.26357 33.13409,-6.57809 45.68119,-0.97453 12.5471,5.60356 -29.60141,34.83952 -39.95581,35.69224 -10.35441,0.85271 -13.88708,0.12182 -19.00338,4.01994 -5.11629,3.89813 -11.32893,13.03437 -11.20712,33.74318 0.12182,20.70876 0.7309,39.10306 0.7309,39.10306 z"
       id="path69" />
    <path
       style="display:inline;fill:#314612;fill-opacity:1"
       d="m 453.88831,921.78552 c 0,0 -18.88156,0 -28.38325,9.37987 -9.50168,9.37987 -10.11077,15.10525 -10.11077,15.10525 0,0 9.25806,-17.90703 38.49402,-24.48512 z"
       id="path70" />
    <path
       style="display:inline;fill:#314612;fill-opacity:1"
       d="m 381.5293,943.10341 c 0,0 -7.91807,-13.39982 -11.8162,-14.49617 -3.89812,-1.09634 -11.32893,-4.75084 -14.13071,-4.75084 -2.80178,0 12.66892,5.72538 25.94691,19.24701 z"
       id="path71" />
    <path
       style="display:inline;fill:#e69300;fill-opacity:1"
       d="m 401.50721,868.55171 c 0,0 2.9236,15.83614 9.50169,23.02332 6.57809,7.18717 7.91807,9.98895 9.50169,9.86713 1.58361,-0.12181 6.45627,-13.03436 5.96901,-16.81067 -0.48727,-3.77632 -1.58362,-15.22707 -3.41087,-16.56705 -1.82724,-1.33998 1.58362,2.80178 13.52164,11.8162 11.93801,9.01442 14.98343,2.9236 14.98343,2.9236 0,0 -0.48727,-18.02885 -7.43081,-25.21602 -6.94354,-7.18717 -10.96349,-11.0853 2.07088,-3.77631 13.03437,7.30899 23.83726,2.22037 23.83726,2.22037 0,0 -1.11978,-9.81965 -7.83849,-16.71063 -6.71871,-6.89098 -17.65814,-11.45626 -17.65814,-11.45626 0,0 22.91251,0.86137 29.88963,-8.35532 6.97712,-9.21668 -11.88694,-14.81561 -15.50471,-15.16016 -3.61776,-0.34455 -31.00942,8.18305 -4.99596,-10.25033 26.01346,-18.43338 -0.51682,-24.46299 -9.38896,-17.05518 -8.87214,7.4078 -17.83042,17.22745 -10.93944,-5.0821 6.89099,-22.30956 -7.06325,-28.08076 -15.67698,-13.60969 -8.61373,14.47106 -9.38896,15.33243 -9.81965,6.97712 -0.43069,-8.35532 -9.99193,-22.91252 -12.05922,-23.86003 -2.06729,-0.94751 -5.59892,5.94347 -6.80484,10.25034 -1.20593,4.30686 -2.49799,19.89771 -2.0673,22.48183 0.43069,2.58411 -6.54643,-12.48991 -14.12651,-17.22746 -7.58008,-4.73755 -11.71467,-4.73755 -11.71467,-4.73755 0,0 -3.87618,6.02961 -2.15344,18.34724 1.72275,12.31763 7.40781,17.83042 7.40781,17.83042 0,0 -14.47106,-10.1642 -19.55316,-10.33648 -5.0821,-0.17227 -12.05922,-0.43068 -12.74832,0.34455 -0.6891,0.77524 2.75639,16.79677 11.45626,22.30956 8.69986,5.51278 11.11171,7.14939 11.11171,7.14939 0,0 -11.71467,-0.86137 -17.39973,0.94751 -5.68506,1.80889 -16.45222,6.63257 -18.00269,11.80081 -1.55047,5.16824 21.87887,11.80081 24.29071,11.80081 2.41184,0 12.92059,-2.23957 6.28802,1.11978 -6.63257,3.35936 -22.30955,18.17497 -21.18977,24.20458 1.11978,6.02961 28.59758,1.11978 31.87079,-1.98116 3.27322,-3.10094 -9.4751,12.31763 -10.42261,22.05114 -0.94751,9.73352 -2.41184,10.25034 2.0673,10.07806 4.47914,-0.17227 21.70659,-7.66621 26.01346,-19.20861 4.30686,-11.54239 -4.04846,8.95828 -1.80889,19.72544 2.23957,10.76716 6.4603,17.74428 10.76716,11.45626 4.30687,-6.28802 15.54742,-13.37838 12.16671,-31.32445 z"
       id="path72" />
    <ellipse
       style="display:inline;fill:#4e3607;fill-opacity:1"
       id="path73"
       cx="399.5047"
       cy="823.73077"
       rx="37.039028"
       ry="34.885597" />
    <ellipse
       style="display:inline;fill:#2d2c0b;fill-opacity:1"
       id="path74"
       cx="399.76312"
       cy="824.07538"
       rx="16.79677"
       ry="16.279945" />
    <path
       style="display:inline;fill:#425312;fill-opacity:1"
       d="m 242.90713,1027.4455 c 0,0 4.13459,-25.1521 27.56393,-43.41322 23.42934,-18.26111 21.70659,-35.14401 21.70659,-35.14401 0,0 -19.98385,2.75639 -28.59758,22.05114 -8.61372,19.29475 -20.32839,42.72409 -20.32839,23.77389 0,-18.9502 -0.6891,-41.00134 -0.6891,-41.00134 0,0 3.79004,-24.11844 14.47106,-25.49664 10.68102,-1.3782 30.66487,-0.6891 36.86676,-4.82369 6.20188,-4.13459 35.48856,-33.76581 35.48856,-43.06864 0,-9.30282 -47.89233,-5.16823 -53.74967,-2.41184 -5.85733,2.75639 -23.77389,12.05922 -23.77389,29.63122 0,17.57201 -8.95827,28.25303 -8.95827,28.25303 l -2.7564,-110.25572 -9.30282,-0.34455 2.75639,116.80216 -7.92463,-12.40377 c 0,0 -1.03365,-37.21131 -9.99192,-40.6568 -8.95828,-3.44549 -17.22746,-11.02557 -33.76582,-7.58008 -16.53835,3.44549 -31.00942,8.95828 -31.00942,8.95828 0,0 20.67295,19.6393 24.46299,26.87483 3.79004,7.23553 40.6568,13.78196 40.6568,13.78196 0,0 17.91655,12.40377 16.53835,28.94213 -1.37819,16.53836 -0.63202,37.64155 -0.63202,37.64155 0,0 -7.67444,1.94906 -12.5471,-15.34888 -4.87266,-17.29795 -25.58146,-31.55048 -25.58146,-31.55048 0,0 -0.97454,32.89046 16.56704,42.7576 17.54158,9.86717 21.56152,8.89257 22.1706,18.02887 0.60909,9.1362 0.48727,16.567 0.48727,16.567 z"
       id="path75" />
    <path
       style="display:inline;fill:#e69300;fill-opacity:1;stroke-width:1.1694"
       d="m 238.28052,831.91206 c 0,0 3.36593,18.80997 10.93927,27.34682 7.57334,8.53683 9.11605,11.86475 10.93927,11.72005 1.8232,-0.14468 7.43308,-15.48205 6.8721,-19.9675 -0.56099,-4.48547 -1.82321,-18.08653 -3.92692,-19.67814 -2.1037,-1.59161 1.82322,3.32792 15.56742,14.03514 13.7442,10.70721 17.25038,3.47261 17.25038,3.47261 0,0 -0.56099,-21.41444 -8.55507,-29.95127 -7.99408,-8.53683 -12.62223,-13.16699 2.3842,-4.48546 15.00643,8.68153 27.44377,2.63733 27.44377,2.63733 0,0 -1.2892,-11.66366 -9.02443,-19.84868 -7.73523,-8.18502 -20.32977,-13.6076 -20.32977,-13.6076 0,0 26.37911,1.02312 34.41185,-9.92435 8.03273,-10.94745 -13.6854,-17.59779 -17.85053,-18.00705 -4.16512,-0.40925 -35.70106,9.71973 -5.75184,-12.17521 29.94923,-21.89494 -0.59501,-29.05684 -10.80948,-20.25793 -10.21447,8.79889 -20.52811,20.46255 -12.59454,-6.03646 7.93357,-26.49902 -8.1319,-33.35397 -18.04886,-16.16542 -9.91697,17.18855 -10.80949,18.21167 -11.30534,8.28734 -0.49585,-9.92435 -11.50368,-27.21521 -13.88374,-28.34065 -2.38007,-1.12544 -6.44602,7.05958 -7.8344,12.17523 -1.38838,5.11563 -2.87592,23.63425 -2.38007,26.70364 0.49585,3.06937 -7.53689,-14.83536 -16.26381,-20.46257 -8.72693,-5.6272 -13.48707,-5.6272 -13.48707,-5.6272 0,0 -4.46263,7.1619 -2.47925,21.79262 1.9834,14.63073 8.52859,21.17876 8.52859,21.17876 0,0 -16.66049,-12.07292 -22.51149,-12.27755 -5.85101,-0.20462 -13.88375,-0.51155 -14.67711,0.40926 -0.79336,0.92082 3.17343,19.95099 13.18956,26.49901 10.01613,6.54801 12.79288,8.49196 12.79288,8.49196 0,0 -13.48706,-1.02312 -20.03226,1.12544 -6.54519,2.14858 -18.94139,7.87808 -20.72644,14.01686 -1.78505,6.13877 25.18908,14.01685 27.96582,14.01685 2.77675,0 14.87544,-2.66013 7.23938,1.33006 -7.63606,3.99021 -25.68492,21.58801 -24.39572,28.7499 1.2892,7.1619 32.92431,1.33006 36.69275,-2.3532 3.76845,-3.68325 -10.90866,14.63073 -11.99952,26.19207 -1.09087,11.56136 -2.77675,12.17523 2.38007,11.9706 5.15682,-0.20462 24.99074,-9.10583 29.94922,-22.81575 4.95848,-13.70991 -4.66098,10.64053 -2.08257,23.42963 2.57842,12.7891 7.43773,21.07644 12.3962,13.60761 4.95849,-7.46884 17.8997,-15.89068 14.0075,-37.2068 z"
       id="path72-2" />
    <path
       style="display:inline;fill:#435515;fill-opacity:1"
       d="m 59.690089,1028.6186 c 0,0 -6.090825,-43.12305 11.207119,-52.86837 17.297944,-9.74532 33.377722,-15.34888 51.406562,-5.11629 18.02885,10.23259 45.80301,4.38539 46.77754,2.43633 0.97454,-1.94906 -26.79963,-33.86499 -33.62135,-35.81405 -6.82173,-1.94907 -26.79963,-8.77079 -37.032221,-2.9236 -10.232587,5.84719 -22.657871,18.27248 -27.043265,28.7487 -4.385394,10.47622 -9.501688,13.64344 -9.745321,11.69438 -0.243633,-1.94906 -0.653959,-36.74073 1.413335,-44.66536 2.067295,-7.92463 7.580081,-18.2611 12.059219,-19.81157 4.479139,-1.55047 6.890983,-6.89099 22.395693,-7.75236 15.50471,-0.86137 19.81157,-1.89502 25.32436,-4.82369 5.51279,-2.92866 33.24899,-35.14401 34.45491,-41.17362 1.20592,-6.0296 -42.55181,-2.06729 -50.47644,-0.51682 -7.924633,1.55047 -28.59758,15.67699 -32.215346,37.03903 -3.617766,21.36205 -13.092867,21.0175 -11.370121,13.78197 1.722746,-7.23554 2.411844,-82.86407 0.861373,-87.86003 -1.550471,-4.99596 -14.815612,-6.02961 -14.815612,-6.02961 l 5.857335,36.17766 -0.861373,69.25437 c 0,0 -9.647375,-17.39973 -11.370121,-18.43338 -1.722746,-1.03364 -0.861373,-30.66487 -3.445491,-33.42126 -2.584118,-2.75639 -25.668909,-25.66891 -29.9757733,-26.35801 -4.3068639,-0.6891 -23.2570657,5.51279 -23.2570657,5.51279 l 9.475101,42.37954 c 0,0 17.227456,5.85733 24.807536,6.71871 7.580081,0.86137 18.950202,6.89098 24.462988,18.08883 5.512786,11.19784 6.029609,21.87886 5.857335,37.72812 -0.172275,15.84926 -0.689098,27.04711 -0.689098,27.04711 0,0 -23.42934,-23.08479 -26.185733,-35.31629 -2.756393,-12.23149 -25.6689096,-24.29071 -25.6689096,-24.29071 l -2.2395692,39.10633 c 0,0 22.7402418,13.09286 29.2866748,23.94616 6.546433,10.8533 22.223418,-6.89098 24.462987,14.12651 2.23957,21.01748 0.34455,34.62718 0.34455,34.62718 z"
       id="path82" />
    <path
       style="display:inline;fill:#e69300;fill-opacity:1;stroke-width:1.3485"
       d="m 59.515744,826.9006 c 0,0 3.881987,21.68787 12.616443,31.53084 8.734456,9.84296 10.513695,13.68004 12.616442,13.51321 2.102734,-0.16682 8.572702,-17.85079 7.925713,-23.02251 -0.647002,-5.17173 -2.102747,-20.85374 -4.528988,-22.68886 -2.426228,-1.83513 2.102747,3.83708 17.954176,16.18249 15.85141,12.34541 19.89515,4.00392 19.89515,4.00392 0,0 -0.647,-24.69082 -9.86671,-34.53378 -9.2197,-9.84295 -14.55743,-15.18151 2.74974,-5.17172 17.30717,10.00979 31.65137,3.04083 31.65137,3.04083 0,0 -1.48686,-13.44818 -10.40804,-22.8855 -8.92117,-9.43731 -23.44666,-15.68954 -23.44666,-15.68954 0,0 30.42347,1.17966 39.68777,-11.44276 9.26429,-12.62241 -15.78361,-20.29024 -20.58732,-20.76211 -4.8037,-0.47186 -41.174631,11.20683 -6.63369,-14.038 34.54095,-25.24484 -0.68624,-33.50249 -12.46676,-23.35737 -11.78052,10.14511 -23.675414,23.5933 -14.5255,-6.96002 9.14993,-30.55334 -9.378656,-38.4571 -20.816056,-18.63871 -11.4374,19.81837 -12.466759,20.99803 -13.038633,9.55529 -0.571875,-11.44276 -13.267389,-31.3791 -16.012358,-32.67673 -2.744969,-1.29763 -7.434304,8.13968 -9.035537,14.03802 -1.601246,5.89832 -3.316857,27.25026 -2.744982,30.78926 0.571875,3.53898 -8.692418,-17.10515 -18.757326,-23.59331 -10.064909,-6.48816 -15.5548602,-6.48816 -15.5548602,-6.48816 0,0 -5.1468325,8.25766 -2.85936,25.12687 2.2874853,16.86921 9.8361672,24.41907 9.8361672,24.41907 0,0 -19.2148242,-13.92005 -25.962889,-14.15599 -6.748065,-0.23593 -16.012358,-0.58982 -16.927352,0.47187 -0.914994,1.0617 3.659964,23.00347 15.211741,30.55333 11.5517643,7.54985 14.75424375,9.79121 14.75424375,9.79121 0,0 -15.55485975,-1.17966 -23.10354175,1.29764 -7.548682,2.4773 -21.845428,9.08342 -23.904158,16.16141 -2.058731,7.078 29.05099,16.16142 32.253456,16.16142 3.202466,0 17.1560939,-3.06713 8.3492982,1.53355 -8.8067952,4.60071 -29.6228522,24.89094 -28.1359962,33.1486 1.486855,8.25766 37.9721636,1.53356 42.3183658,-2.71323 4.3462152,-4.24679 -12.5811365,16.86921 -13.8392501,30.19942 -1.2581136,13.33022 -3.2024662,14.03802 2.7449823,13.80208 5.9474491,-0.23593 28.822236,-10.49901 34.540942,-26.30653 5.718693,-15.8075 -5.375587,12.26852 -2.401863,27.01434 2.973724,14.74581 8.578053,24.3011 14.296747,15.68954 5.718706,-8.61155 20.644025,-18.32192 16.155083,-42.89938 z"
       id="path72-23" />
    <path
       style="display:inline;fill:#2e440d;fill-opacity:1"
       d="m 256.54557,922.63824 c 0,0 8.28352,-19.49065 22.9015,-25.8251 14.61798,-6.33446 27.77416,-6.82173 27.77416,-6.82173 0,0 -36.30132,9.25806 -50.67566,32.64683 z"
       id="path76" />
    <path
       style="display:inline;fill:#2e440d;fill-opacity:1"
       d="m 186.62289,896.08224 c 0,0 26.31237,0.97453 35.08316,28.99233 8.77078,28.01779 -3.6545,-19.97791 -35.08316,-28.99233 z"
       id="path77" />
    <ellipse
       style="display:inline;fill:#503807;fill-opacity:1"
       id="path78"
       cx="232.54771"
       cy="782.06201"
       rx="37.154034"
       ry="36.788586" />
    <ellipse
       style="display:inline;fill:#2b2b0a;fill-opacity:1"
       id="path79"
       cx="234.86223"
       cy="780.84381"
       rx="17.054312"
       ry="18.028843" />
    <ellipse
       style="display:inline;fill:#4f3605;fill-opacity:1"
       id="path80"
       cx="55.472404"
       cy="763.69305"
       rx="48.925976"
       ry="49.787346" />
    <ellipse
       style="display:inline;fill:#2b2c0d;fill-opacity:1;stroke-width:0.933236"
       id="path81"
       cx="55.83427"
       cy="762.5708"
       rx="26.512968"
       ry="25.235687" />
    <path
       style="display:inline;fill:#364916;fill-opacity:1"
       d="m 34.627186,890.31492 c 0,0 -17.055181,-29.45895 -33.76581321,-32.55989 -16.71063179,-3.10095 0.68909821,5.85733 0.68909821,5.85733 0,0 23.601615,12.2315 33.076715,26.70256 z"
       id="path83" />
    <path
       style="display:inline;fill:#364916;fill-opacity:1"
       d="m 83.380886,893.24359 c 0.689099,0 29.975774,-19.12248 36.522204,-20.15613 6.54644,-1.03365 11.88695,-3.27321 11.88695,-3.27321 0,0 -18.77793,0.34454 -28.4253,6.02961 -9.64738,5.68506 -17.916559,12.57604 -19.983854,17.39973 z"
       id="path84" />
    <path
       style="display:inline;fill:#364916;fill-opacity:1"
       d="m 80.452219,964.56525 c 0,0 38.761771,-21.53432 54.611031,-9.30282 15.84926,12.23149 5.68506,-1.20593 -4.13459,-4.30687 -9.81965,-3.10094 -16.36608,-2.23957 -20.15612,-0.86137 -3.79004,1.3782 -18.777926,4.65141 -30.320321,14.47106 z"
       id="path85" />
  </g>
</svg>
